<svg width="34" height="34" viewBox="0 0 34 34" fill="none" xmlns="http://www.w3.org/2000/svg">
<path d="M24.5113 21.9682H22.0402C21.3967 22.0163 20.8819 21.7759 20.47 21.3671C20.1354 21.0305 19.8008 20.6939 19.4919 20.3573C19.3632 20.213 19.2087 20.0928 19.0543 19.9967C18.7197 19.7803 18.4108 19.8524 18.2306 20.189C18.0247 20.5256 17.9989 20.8863 17.9732 21.271C17.9475 21.824 17.7673 21.9682 17.1752 21.9923C15.914 22.0403 14.7299 21.872 13.6231 21.271C12.6449 20.742 11.8984 20.0207 11.2292 19.1792C9.94217 17.5683 8.96404 15.789 8.08886 13.9617C7.88294 13.553 8.03738 13.3366 8.52645 13.3126C9.3244 13.2885 10.1481 13.2885 10.9461 13.3126C11.2807 13.3126 11.4866 13.4809 11.6153 13.7934C12.0529 14.8033 12.5934 15.741 13.2627 16.6306C13.4429 16.871 13.6231 17.1114 13.8805 17.2557C14.1636 17.448 14.3953 17.3759 14.524 17.0874C14.6012 16.895 14.6527 16.7027 14.6784 16.4863C14.7299 15.789 14.7556 15.0918 14.6269 14.3945C14.5497 13.9617 14.2923 13.6732 13.829 13.6011C13.5973 13.553 13.6231 13.4809 13.7518 13.3607C13.9577 13.1443 14.1379 13 14.4982 13H17.3039C17.7415 13.0721 17.8445 13.2645 17.896 13.6732V16.5825C17.896 16.7508 17.9732 17.2076 18.2821 17.3278C18.5395 17.4 18.6939 17.2076 18.8484 17.0633C19.5176 16.3901 20.0067 15.6207 20.4185 14.8033C20.5987 14.4426 20.7789 14.082 20.9333 13.6973C21.062 13.4328 21.2422 13.2885 21.5769 13.2885H24.2796C24.3568 13.2885 24.434 13.2885 24.5113 13.3126C24.9746 13.3847 25.0776 13.577 24.9489 13.9858C24.7172 14.635 24.3053 15.1639 23.8678 15.7169C23.4302 16.294 22.9411 16.847 22.5035 17.448C22.0917 17.977 22.1174 18.2415 22.6322 18.7223C23.1985 19.2273 23.7905 19.7081 24.3053 20.2852C24.537 20.5256 24.7429 20.7901 24.8974 21.0786C25.1033 21.4873 24.8974 21.9442 24.5113 21.9682Z" fill="white"/>
</svg>
