<svg width="34" height="34" viewBox="0 0 34 34" fill="none" xmlns="http://www.w3.org/2000/svg">
<path d="M16.003 20.2733C14.6726 20.143 13.4731 19.8355 12.4461 19.0817C12.3186 18.9879 12.1871 18.8974 12.0708 18.7927C11.6213 18.3875 11.576 17.9234 11.9317 17.4452C12.236 17.036 12.7468 16.9265 13.2777 17.1615C13.3805 17.207 13.4785 17.2639 13.5723 17.3249C15.4863 18.5592 18.1156 18.5933 20.0368 17.3804C20.2271 17.2435 20.4306 17.1318 20.6664 17.0748C21.1249 16.9643 21.5525 17.1224 21.7985 17.4989C22.0797 17.9288 22.0761 18.3485 21.7297 18.6824C21.1984 19.1942 20.5595 19.5644 19.8495 19.8229C19.1782 20.0671 18.4429 20.1901 17.7152 20.2717C17.825 20.3839 17.8767 20.4391 17.9454 20.5039C18.9336 21.4357 19.9261 22.3636 20.911 23.2983C21.2466 23.6168 21.3167 24.0117 21.1319 24.3821C20.9299 24.787 20.4777 25.0533 20.0343 25.0248C19.7534 25.0066 19.5343 24.8754 19.3396 24.6913C18.5939 23.9871 17.8341 23.2958 17.1035 22.5782C16.8909 22.3695 16.7886 22.409 16.601 22.5902C15.8508 23.315 15.0883 24.0287 14.3214 24.7384C13.977 25.0571 13.5673 25.1144 13.1679 24.9324C12.7433 24.7393 12.4732 24.3325 12.4941 23.9238C12.5084 23.6473 12.6533 23.4361 12.8555 23.2467C13.8334 22.3302 14.8087 21.4114 15.7843 20.4934C15.8488 20.4323 15.909 20.3676 16.003 20.2733Z" fill="white"/>
<path fill-rule="evenodd" clip-rule="evenodd" d="M12.7799 12.766C12.766 15.1 14.7128 17.0318 17.0869 17.0397C19.4851 17.0478 21.4453 15.16 21.4575 12.8307C21.4696 10.4465 19.5414 8.51748 17.139 8.51113C14.7415 8.5046 12.7935 10.4062 12.7799 12.766ZM17.1217 10.6892C18.3 10.6903 19.2403 11.613 19.2444 12.772C19.2484 13.9308 18.3106 14.8595 17.1326 14.8636C15.9511 14.8678 15.0027 13.9517 14.9939 12.797C14.9847 11.6274 15.9334 10.688 17.1217 10.6892Z" fill="white"/>
</svg>
