<svg width="79" height="79" viewBox="0 0 79 79" fill="none" xmlns="http://www.w3.org/2000/svg">
<path d="M54 24.8838C54 15.5743 47.271 8 39 8C30.7291 8 24 15.5743 24 24.8838C24 32.9988 29.1143 39.7913 35.9046 41.4019L34.4761 45.25C34.3624 45.5567 34.4058 45.8995 34.5928 46.169C34.7793 46.4375 35.0865 46.5977 35.4136 46.5977H38.1426C38.1268 46.6685 38.0997 46.735 38.0997 46.8106C38.0997 47.8184 37.3086 48.8203 36.4712 49.8819C35.3887 51.2539 34.1617 52.8096 34.4576 54.7852C34.711 56.4737 36.0049 58.0752 38.5308 59.8223C42.0826 62.2793 41.1187 64.0039 39.6597 66.6143C38.8926 67.9873 38.0997 69.4063 38.0997 71C38.0997 71.5528 38.5474 72 39.0997 72C39.6519 72 40.0997 71.5528 40.0997 71C40.0997 69.9268 40.7339 68.792 41.4058 67.5899C42.8023 65.0909 44.7149 61.668 39.6685 58.1778C37.6846 56.8047 36.5967 55.5635 36.4356 54.4883C36.2681 53.3692 37.1294 52.2774 38.0416 51.1211C39.0064 49.8985 40.0997 48.5118 40.0997 46.8106C40.0997 46.735 40.0726 46.6685 40.0567 46.5977H42.5855C42.9126 46.5977 43.2193 46.4375 43.4063 46.169C43.5933 45.8995 43.6368 45.5567 43.523 45.25L42.095 41.402C48.8855 39.7917 54 32.9991 54 24.8838ZM40.0977 41.7676L41.1475 44.5977H36.8516L37.9019 41.7676H40.0977ZM39 39.7676C31.8316 39.7676 26 33.0909 26 24.8838C26 16.6768 31.8316 10 39 10C46.1685 10 52 16.6768 52 24.8838C52 33.0909 46.1685 39.7676 39 39.7676Z" fill="black"/>
<path d="M47.2789 19.503C46.5416 16.75 44.6802 14.8916 41.7466 13.9766C41.2188 13.8135 40.6587 14.1065 40.4947 14.6338C40.3301 15.1612 40.6246 15.7217 41.1519 15.8868C43.419 16.5928 44.7911 17.9453 45.3472 20.0205C45.4668 20.4678 45.8707 20.7618 46.3125 20.7618C46.398 20.7618 46.4849 20.751 46.5718 20.7276C47.1055 20.585 47.4219 20.0362 47.2789 19.503Z" fill="black"/>
</svg>
