<svg width="79" height="79" viewBox="0 0 79 79" fill="none" xmlns="http://www.w3.org/2000/svg">
<path d="M70.6872 11.2108L67.7762 8.3C67.3762 7.9 66.668 7.9 66.268 8.3L57.5342 17.0338C57.1172 17.4508 57.1172 18.125 57.5342 18.542L60.445 21.4529C60.6445 21.6534 60.9165 21.7654 61.1991 21.7654C61.4818 21.7654 61.7528 21.6534 61.9533 21.4529L70.6871 12.7191C71.1042 12.3021 71.1042 11.628 70.6872 11.2108ZM61.1993 19.1905L59.7967 17.7879L67.0222 10.5624L68.4248 11.965L61.1993 19.1905Z" fill="black"/>
<path d="M62.6288 20.6208L58.3664 16.3585C57.1184 15.1105 55.0897 15.1105 53.8417 16.3585L52.438 17.7611C52.2375 17.9606 52.1255 18.2315 52.1255 18.5152C52.1255 18.7978 52.2375 19.0688 52.438 19.2693L59.7169 26.5481C59.9164 26.7486 60.1884 26.8606 60.471 26.8606C60.7548 26.8606 61.0257 26.7475 61.2263 26.5481L62.6289 25.1455C63.8768 23.8975 63.8768 21.8688 62.6288 20.6208ZM61.1194 23.6363L60.4709 24.2848L54.7013 18.5142L55.3498 17.8657C55.7658 17.4518 56.4421 17.4497 56.8581 17.8657L61.1194 22.1281C61.5354 22.5441 61.5354 23.2203 61.1194 23.6363Z" fill="black"/>
<path d="M61.7689 25.583L53.4021 17.2161C51.7903 15.6044 49.6485 14.7169 47.369 14.7169C45.0906 14.7169 42.9488 15.6044 41.337 17.2161L34.9702 23.583C34.7697 23.7825 34.6577 24.0533 34.6577 24.3371C34.6577 24.6208 34.7697 24.8907 34.9702 25.0912L53.8938 44.0158C54.1018 44.2238 54.3749 44.3283 54.6479 44.3283C54.921 44.3283 55.194 44.2238 55.402 44.0158L61.7689 37.649C65.0947 34.3221 65.0947 28.9088 61.7689 25.583ZM60.2606 36.1407L54.6479 41.7534L37.2324 24.3371L42.8451 18.7254C44.0536 17.5169 45.66 16.8513 47.3689 16.8513C49.0787 16.8513 50.6851 17.5169 51.8936 18.7254L60.2604 27.0922C62.7544 29.5862 62.7544 33.6459 60.2606 36.1407Z" fill="black"/>
<path d="M53.2195 22.8567L50.3075 19.9436C48.6872 18.3243 46.0536 18.3243 44.4345 19.9436L41.5226 22.8567C41.1054 23.2738 41.1054 23.9479 41.5226 24.3649C41.9397 24.7819 42.6148 24.7819 43.0308 24.3649L45.9428 21.4518C46.731 20.6645 48.0121 20.6645 48.7992 21.4518L51.7112 24.3649C51.9192 24.5729 52.1923 24.6774 52.4653 24.6774C52.7373 24.6774 53.0103 24.5729 53.2195 24.3649C53.6365 23.9479 53.6365 23.2737 53.2195 22.8567Z" fill="black"/>
<path d="M20.4658 61.4312L17.5549 58.5203C17.3554 58.3198 17.0834 58.2078 16.8008 58.2078C16.5182 58.2078 16.2472 58.3198 16.0467 58.5203L7.31275 67.2541C6.89575 67.6712 6.89575 68.3454 7.31275 68.7624L10.2236 71.6732C10.4231 71.8737 10.6951 71.9857 10.9777 71.9857C11.2615 71.9857 11.5323 71.8737 11.7318 71.6732L20.4656 62.9394C20.8828 62.5224 20.8828 61.8483 20.4658 61.4312ZM10.9778 69.4109L9.57523 68.0082L16.8008 60.7827L18.2034 62.1853L10.9778 69.4109Z" fill="black"/>
<path d="M25.56 60.7049L18.2812 53.4261C18.0817 53.2256 17.8097 53.1136 17.5271 53.1136C17.2444 53.1136 16.9734 53.2256 16.7729 53.4261L15.3703 54.8287C14.1223 56.0767 14.1223 58.1054 15.3703 59.3534L19.6327 63.6157C20.2567 64.2397 21.0759 64.5512 21.895 64.5512C22.7141 64.5512 23.5334 64.2397 24.1564 63.6157L25.5601 62.2131C25.7606 62.0136 25.8726 61.7428 25.8726 61.459C25.8725 61.1764 25.7605 60.9055 25.56 60.7049ZM22.6513 62.1065C22.2353 62.5204 21.559 62.5225 21.143 62.1065L16.8807 57.8442C16.4647 57.4282 16.4647 56.7519 16.8807 56.3359L17.5292 55.6874L23.2998 61.458L22.6513 62.1065Z" fill="black"/>
<path d="M44.4846 53.4239L25.561 34.5003C25.161 34.1003 24.4528 34.1003 24.0528 34.5003L16.23 42.3231C12.9041 45.65 12.9041 51.0633 16.23 54.3891L24.5968 62.756C26.2085 64.3677 28.3504 65.2552 30.6299 65.2552C32.9093 65.2552 35.0512 64.3677 36.6629 62.755L44.4847 54.9321C44.9016 54.515 44.9016 53.8409 44.4846 53.4239ZM35.1535 61.2478C33.945 62.4563 32.3386 63.122 30.6297 63.122C28.9199 63.122 27.3135 62.4563 26.105 61.2478L17.7382 52.881C15.2444 50.3872 15.2444 46.3275 17.7382 43.8326L24.8069 36.7639L42.2211 54.1793L35.1535 61.2478Z" fill="black"/>
<path d="M37.9365 30.863C36.7546 29.6823 34.696 29.6812 33.5163 30.863L26.9648 37.4133C26.7643 37.6128 26.6523 37.8837 26.6523 38.1675C26.6523 38.4512 26.7643 38.7211 26.9648 38.9216L29.8757 41.8324C30.0837 42.0404 30.3568 42.1449 30.6298 42.1449C30.9028 42.1449 31.1759 42.0404 31.3861 41.8324L37.9364 35.2821C38.5262 34.6922 38.8516 33.9071 38.8516 33.072C38.8516 32.2369 38.5264 31.4529 37.9365 30.863ZM36.4251 33.7729L30.6289 39.5691L29.2263 38.1665L35.0225 32.3703C35.3969 31.9948 36.0498 31.9948 36.4251 32.3714C36.6118 32.558 36.7153 32.8066 36.7153 33.0711C36.7153 33.3366 36.6129 33.5851 36.4251 33.7729Z" fill="black"/>
<path d="M48.1251 41.0517C46.9058 39.8325 44.924 39.8315 43.7049 41.0517L37.1545 47.602C36.954 47.8015 36.842 48.0724 36.842 48.3561C36.842 48.6399 36.954 48.9098 37.1545 49.1103L40.0654 52.0211C40.2734 52.2291 40.5465 52.3336 40.8195 52.3336C41.0926 52.3336 41.3656 52.2301 41.5736 52.0221L48.1251 45.4718C49.3432 44.2527 49.3432 42.2708 48.1251 41.0517ZM46.6157 43.9626L40.8195 49.7588L39.4169 48.3561L45.2131 42.5599C45.5886 42.1844 46.2413 42.1844 46.6157 42.5599C47.0018 42.9461 47.0018 43.5764 46.6157 43.9626Z" fill="black"/>
<path d="M38.662 53.4249L25.5614 40.3243C25.1444 39.9071 24.4701 39.9071 24.0531 40.3243L18.2303 46.1471C17.8132 46.5642 17.8132 47.2383 18.2303 47.6553L31.3321 60.756C31.5401 60.964 31.8132 61.0685 32.0862 61.0685C32.3582 61.0685 32.6313 60.964 32.8393 60.756L38.6622 54.9331C39.0791 54.5161 39.0791 53.842 38.662 53.4249ZM32.0851 58.4937L20.4927 46.9013L24.8073 42.5867L36.3997 54.1791L32.0851 58.4937Z" fill="black"/>
<path d="M31.3841 51.9701L27.0173 47.6022C26.6002 47.1852 25.926 47.185 25.509 47.6022C25.092 48.0193 25.092 48.6934 25.509 49.1104L29.8759 53.4784C30.0839 53.6864 30.357 53.7909 30.63 53.7909C30.903 53.7909 31.1761 53.6864 31.3841 53.4784C31.8012 53.0612 31.8012 52.3871 31.3841 51.9701Z" fill="black"/>
</svg>
