<svg width="91" height="50" viewBox="0 0 91 50" fill="none" xmlns="http://www.w3.org/2000/svg">
<path d="M12.8866 21.4124V24.9092L22.3413 23.8874V20.0954L12.8866 21.4124Z" fill="black"/>
<path d="M15.9094 25.1363V37.1254H19.364V24.7729L15.9094 25.1363Z" fill="black"/>
<path d="M23.6141 19.9137V37.1254H27.2732V19.3915L23.6141 19.9137Z" fill="black"/>
<path d="M27.9551 19.3006V23.2743L33.2052 22.6839V18.5513L27.9551 19.3006Z" fill="black"/>
<path d="M27.9551 26.2035V30.2452L31.4097 30.0636V25.9083L27.9551 26.2035Z" fill="black"/>
<path d="M27.9551 33.1517V37.1253H33.2052V32.9927L27.9551 33.1517Z" fill="black"/>
<path d="M46.8417 16.644V37.1254H51.6146V15.9628L46.8417 16.644Z" fill="black"/>
<path d="M52.5237 15.8492V20.5495L59.4783 19.8002V14.8729L52.5237 15.8492Z" fill="black"/>
<path d="M52.5237 24.1145V28.9056L57.0919 28.6558V23.7057L52.5237 24.1145Z" fill="black"/>
<path d="M52.5237 32.4251V37.1253H59.4783V32.198L52.5237 32.4251Z" fill="black"/>
<path d="M34.6143 18.3697V37.1253H38.7734V17.7793L34.6143 18.3697Z" fill="black"/>
<path d="M39.5462 32.8111V37.1254H45.569V32.6295L39.5462 32.8111Z" fill="black"/>
<path d="M75.115 14.6458C73.615 13.2153 71.3877 12.6249 68.9558 12.9882V18.2107C69.9331 18.1653 70.7286 18.5286 71.0922 19.2552C71.6604 20.4133 71.0695 22.139 69.7058 23.7511C67.5921 26.2262 62.0239 31.3125 62.0239 31.3125L70.0467 31.04C74.9559 26.2489 76.7059 23.3424 77.0241 19.7321C77.1832 17.7793 76.5014 15.9401 75.115 14.6458Z" fill="black"/>
<path d="M61.0239 32.1526V37.1254H77.3196V31.6531L61.0239 32.1526Z" fill="black"/>
<path d="M68.024 13.079C63.2966 14.0781 60.9784 17.5522 61.2511 23.2289L66.2967 22.7748C66.0694 19.5731 67.0467 18.8011 68.0467 18.3924L68.024 13.079Z" fill="black"/>
</svg>
