<svg width="79" height="79" viewBox="0 0 79 79" fill="none" xmlns="http://www.w3.org/2000/svg">
<path d="M27.0307 18.2455C26.6136 18.5916 26.5553 19.2102 26.9014 19.6273L29.7702 23.0896C30.1162 23.5072 30.7353 23.565 31.1524 23.2189C31.5696 22.8733 31.6278 22.2543 31.2818 21.8372L28.413 18.3749C28.0669 17.9572 27.4484 17.8995 27.0307 18.2455Z" fill="black"/>
<path d="M47.8498 23.2189C48.2674 23.565 48.8865 23.5067 49.2321 23.0896L52.1008 19.6273C52.4469 19.2102 52.3892 18.5911 51.9715 18.2455C51.5544 17.8995 50.9353 17.9572 50.5898 18.3749L47.7205 21.8372C47.3744 22.2543 47.4327 22.8733 47.8498 23.2189Z" fill="black"/>
<path d="M38.5198 15.9815V20.1195C38.5198 20.6619 38.9589 21.101 39.5013 21.101C40.0436 21.101 40.4827 20.6619 40.4827 20.1195V15.9815C40.4827 15.4391 40.0436 15 39.5013 15C38.9589 15 38.5198 15.4391 38.5198 15.9815Z" fill="black"/>
<path d="M70.8943 30.786C70.8928 30.786 70.8907 30.786 70.8892 30.786C69.6996 30.7886 67.5971 30.8755 66.7716 30.0412C65.329 28.5853 64.2156 27.2527 62.1228 26.2855C62.1167 26.283 62.1111 26.2804 62.1054 26.2778C56.0105 23.6145 56.3648 23.7618 56.2472 23.7316C52.5713 22.7859 50.2592 25.9563 49.5379 27.7899L48.1817 30.7553C46.6768 30.7553 43.375 30.7553 42.1154 30.7553C41.0859 30.7553 40.1571 31.1909 39.5012 31.8861C38.8362 31.1817 37.9247 30.7553 36.8241 30.7553H30.8207L29.4646 27.7894C28.7428 25.9563 26.4317 22.7869 22.7552 23.7316C22.6387 23.7618 16.9701 26.2436 16.8796 26.2855C15.9789 26.7021 14.6473 27.5819 13.8728 28.3834C13.8217 28.4356 12.2309 30.0412 12.2309 30.0417C11.5321 30.7466 9.85027 30.7957 8.84987 30.7881C8.71185 30.7875 8.48182 30.7865 8.11274 30.7855C8.11121 30.7855 8.10967 30.7855 8.10814 30.7855C6.94263 30.786 6 31.7291 6 32.8947V47.7825C6 48.9454 6.94621 49.8917 8.10916 49.8917C10.067 49.8911 10.1912 49.8911 10.1948 49.8911H10.1979C11.5873 49.8911 12.214 50.4964 13.0805 51.3337C14.1402 52.3576 15.459 53.632 18.3309 53.632H18.3396H36.8241H36.887C37.916 53.632 38.8449 53.197 39.5012 52.5013C40.1571 53.197 41.0859 53.632 42.1154 53.632C42.1226 53.632 42.1297 53.6315 42.1374 53.631C42.1507 53.6315 42.1645 53.632 42.1778 53.632H45.1253C45.6672 53.632 46.1068 53.1929 46.1068 52.6505C46.1068 52.1082 45.6672 51.6691 45.1253 51.6691H42.1778C41.3435 51.6691 40.6325 51.0669 40.5042 50.2914C40.3457 49.2762 41.137 48.4036 42.1154 48.4036H52.422C53.3222 48.4036 54.0547 49.1361 54.0547 50.0363C54.0547 50.936 53.3237 51.6675 52.4246 51.6691H49.7056C49.1632 51.6691 48.7241 52.1087 48.7241 52.6505C48.7241 53.1929 49.1632 53.632 49.7056 53.632H60.6618H60.6705C63.5434 53.632 64.8623 52.3576 65.922 51.3337C67.6293 49.6836 67.8522 49.8911 70.8933 49.8917C72.0562 49.8917 73.0019 48.9454 73.0019 47.7825V42.6532C73.0019 42.1109 72.5628 41.6712 72.0204 41.6712C71.4786 41.6712 71.039 42.1109 71.039 42.6532V47.7825C71.039 47.8633 70.974 47.9287 70.8938 47.9287C68.941 47.9282 68.8173 47.9277 68.8086 47.9277C68.8071 47.9277 68.8061 47.9277 68.8046 47.9277C66.6208 47.9277 65.5248 48.9874 64.5576 49.9218C63.5879 50.8593 62.75 51.6691 60.67 51.6691C60.6675 51.6691 60.6649 51.6691 60.6624 51.6691H55.6241C56.3474 50.2566 56.0591 48.5283 54.887 47.4226C56.3939 46.0005 56.395 43.6168 54.887 42.1942C56.7492 40.4367 56.2293 37.3737 53.9183 36.3114L54.5266 35.5401C54.9846 36.747 55.8853 38.2274 57.6607 39.4123C58.1115 39.7134 58.7209 39.5912 59.0214 39.1409C59.3225 38.69 59.2014 38.0807 58.7505 37.7796C56.5969 36.3421 56.1404 34.3766 56.0438 33.617L57.6101 31.6315C57.9459 31.2057 57.8733 30.5887 57.4475 30.2528C57.0217 29.917 56.4047 29.9901 56.0688 30.4154C56.0499 30.4394 51.6199 36.0548 51.6015 36.0794C50.092 38.119 47.7549 36.3181 48.5707 34.624C48.5738 34.6179 48.5763 34.6122 48.5789 34.6061C51.6082 27.9816 51.6378 27.6744 52.511 26.7215C53.4515 25.6946 54.4908 25.3321 55.6859 25.6153L61.3044 28.0706C63.1063 28.9406 63.9626 29.9952 65.3765 31.4229C66.7521 32.8124 69.0985 32.7531 70.8933 32.749H70.8938C71.1013 32.749 71.039 32.5992 71.039 38.0725C71.039 38.6149 71.4781 39.054 72.0204 39.054C72.5628 39.054 73.0019 38.6149 73.0019 38.0725V32.8947C73.0024 31.7266 72.0578 30.786 70.8943 30.786ZM47.2841 32.7188C46.7238 33.9436 46.253 34.7375 46.4897 35.9802C46.4897 35.9812 46.4897 35.9827 46.4902 35.9843H42.1154C41.1365 35.9843 40.3457 35.1117 40.5047 34.097C40.6325 33.3215 41.3435 32.7188 42.1778 32.7188H47.2841ZM39.5012 37.114C39.4567 37.0675 39.376 36.9872 39.3545 36.9668C39.4327 36.8932 39.4537 36.8691 39.5012 36.819C39.5498 36.8707 39.5692 36.8927 39.6479 36.9668C39.6213 36.9918 39.5452 37.0675 39.5012 37.114ZM39.5012 42.3429C39.4542 42.2934 39.3724 42.2121 39.3535 42.1942C39.3755 42.1732 39.4547 42.0945 39.5012 42.0454C39.5477 42.0945 39.629 42.1753 39.6489 42.1942C39.6213 42.2203 39.5482 42.2934 39.5012 42.3429ZM39.6479 47.4211C39.5677 47.4973 39.5508 47.5162 39.5012 47.5688C39.4527 47.5172 39.4337 47.4957 39.3545 47.4211C39.3821 47.3955 39.4552 47.3224 39.5012 47.2739C39.5462 47.3219 39.6295 47.4037 39.6479 47.4211ZM36.887 46.4406H26.5804C25.6802 46.4406 24.9477 45.7086 24.9477 44.8084C24.9477 43.9077 25.6802 43.1757 26.5804 43.1757H36.887C37.7872 43.1757 38.5197 43.9077 38.5197 44.8084C38.5197 45.7086 37.7872 46.4406 36.887 46.4406ZM24.9477 39.58C24.9477 38.7217 25.6133 38.0162 26.4552 37.9518C28.0639 39.4246 30.1531 39.1378 31.4183 37.9472H36.887C37.7872 37.9472 38.5197 38.6793 38.5197 39.58C38.5197 40.4797 37.7877 41.2122 36.887 41.2122H26.5804C25.6802 41.2127 24.9477 40.4802 24.9477 39.58ZM36.8246 32.7188C37.6144 32.7188 38.2948 33.2581 38.4737 33.9733C38.4737 33.9738 38.4742 33.9748 38.4742 33.9753C38.7217 34.9691 37.9533 35.9843 36.887 35.9843H32.5123C32.5128 35.9827 32.5128 35.9812 32.5128 35.9802C32.7362 34.8055 32.2786 33.9446 32.1079 33.5704L31.7184 32.7188H36.8246ZM18.3391 51.6691C18.3365 51.6691 18.3339 51.6691 18.3314 51.6691C16.2529 51.6691 15.4145 50.8593 14.4448 49.9218C13.4777 48.9869 12.3817 47.9277 10.1953 47.9277C10.1938 47.9277 10.1923 47.9277 10.1912 47.9277C10.1851 47.9277 10.0614 47.9282 8.10865 47.9287C8.02839 47.9287 7.96296 47.8633 7.96296 47.7825V32.8947C7.96296 32.8139 8.02788 32.749 8.10814 32.749H8.10865C9.91212 32.7531 12.2411 32.821 13.6259 31.4229C16.8326 28.1851 15.8031 28.8982 23.316 25.6153C25.3607 25.1338 26.7895 26.6577 27.6677 28.5807C29.4502 32.4785 28.869 31.2082 30.423 34.6061C31.2251 36.3631 28.9406 38.0679 27.3825 36.0553C26.4174 34.8321 23.8292 31.5513 22.9336 30.4154C22.5978 29.9896 21.9808 29.917 21.5549 30.2528C21.1291 30.5882 21.0565 31.2057 21.3919 31.631L22.9587 33.617C22.862 34.3761 22.4056 36.3416 20.2519 37.7796C19.8011 38.0807 19.6799 38.69 19.981 39.1409C20.2816 39.5917 20.8909 39.7134 21.3418 39.4123C23.1171 38.2269 24.0178 36.7465 24.4759 35.5401L25.0842 36.3114C22.7711 37.3747 22.2553 40.4388 24.1155 42.1937C22.6085 43.6158 22.6075 45.9995 24.1155 47.4221C22.9408 48.5304 22.6565 50.2592 23.3783 51.6691H18.3391ZM26.5804 51.6691C25.6802 51.6691 24.9477 50.937 24.9477 50.0363C24.9477 49.1361 25.6802 48.4036 26.5804 48.4036H36.887C37.9482 48.4036 38.7237 49.4091 38.4742 50.4126C38.4742 50.4131 38.4737 50.4141 38.4737 50.4146C38.2948 51.1298 37.6144 51.6691 36.8246 51.6691H26.5804ZM54.0547 44.8084C54.0547 45.7086 53.3222 46.4406 52.422 46.4406H42.1154C41.2152 46.4406 40.4827 45.7086 40.4827 44.8084C40.4827 43.9077 41.2152 43.1757 42.1154 43.1757H52.4225C53.3227 43.1757 54.0547 43.9077 54.0547 44.8084ZM52.4225 41.2127H42.1154C41.2152 41.2127 40.4827 40.4802 40.4827 39.58C40.4827 38.6793 41.2152 37.9472 42.1154 37.9472H47.5841C48.8825 39.1695 50.9774 39.3893 52.5472 37.9518C53.3892 38.0162 54.0547 38.7217 54.0547 39.58C54.0547 40.4802 53.3227 41.2127 52.4225 41.2127Z" fill="black"/>
</svg>
